HIERARCHY
ROOT Hips
{
	OFFSET 0.000000 0.000000 0.000000
	CHANNELS 6 Xposition Yposition Zposition Xrotation Yrotation Zrotation
	JOINT LeftUpLeg_virtual
	{
		OFFSET 0.000000 0.000000 0.000000
		CHANNELS 3 Xrotation Yrotation Zrotation
		JOINT LeftUpLeg
		{
			OFFSET 13.026900 -6.336304 -1.092800
			CHANNELS 3 Xrotation Yrotation Zrotation
			JOINT LeftLeg
			{
				OFFSET 0.524474 -46.096886 9.782700
				CHANNELS 3 Xrotation Yrotation Zrotation
				JOINT LeftFoot
				{
					OFFSET -0.524474 -53.427422 -12.948200
					CHANNELS 3 Xrotation Yrotation Zrotation
					JOINT LeftToeBase
					{
						OFFSET 0.192200 -14.009700 16.364100
						CHANNELS 3 Xrotation Yrotation Zrotation
						JOINT LeftToe_End
						{
							OFFSET -1.784700 -0.561700 9.474800
							CHANNELS 3 Xrotation Yrotation Zrotation
							End Site
							{
								OFFSET 0 0 0
							}
						}
					}
				}
			}
		}
	}
	JOINT RightUpLeg_virtual
	{
		OFFSET 0.000000 0.000000 0.000000
		CHANNELS 3 Xrotation Yrotation Zrotation
		JOINT RightUpLeg
		{
			OFFSET -12.883000 -6.336304 -1.092800
			CHANNELS 3 Xrotation Yrotation Zrotation
			JOINT RightLeg
			{
				OFFSET -0.524587 -46.096825 9.782800
				CHANNELS 3 Xrotation Yrotation Zrotation
				JOINT RightFoot
				{
					OFFSET 0.524587 -53.427383 -12.948300
					CHANNELS 3 Xrotation Yrotation Zrotation
					JOINT RightToeBase
					{
						OFFSET -0.192200 -14.009700 16.364100
						CHANNELS 3 Xrotation Yrotation Zrotation
						JOINT RightToe_End
						{
							OFFSET 1.784700 -0.561700 9.474800
							CHANNELS 3 Xrotation Yrotation Zrotation
							End Site
							{
								OFFSET 0 0 0
							}
						}
					}
				}
			}
		}
	}
	JOINT Spine_virtual
	{
		OFFSET 0.000000 0.000000 0.000000
		CHANNELS 3 Xrotation Yrotation Zrotation
		JOINT Spine
		{
			OFFSET 0.072000 7.257294 -0.789700
			CHANNELS 3 Xrotation Yrotation Zrotation
			JOINT Spine1
			{
				OFFSET 0.000000 12.508769 -0.658067
				CHANNELS 3 Xrotation Yrotation Zrotation
				JOINT Spine1_split
				{
					OFFSET 0.000000 12.508769 -0.658067
					CHANNELS 3 Xrotation Yrotation Zrotation
					JOINT Spine2
					{
						OFFSET 0.000000 12.508769 -0.658067
						CHANNELS 3 Xrotation Yrotation Zrotation
						JOINT Neck_virtual
						{
							OFFSET 0.000000 0.000000 0.000000
							CHANNELS 3 Xrotation Yrotation Zrotation
							JOINT Neck
							{
								OFFSET 0.000000 14.033295 7.520400
								CHANNELS 3 Xrotation Yrotation Zrotation
								JOINT Head
								{
									OFFSET 0.000000 8.198502 5.703100
									CHANNELS 3 Xrotation Yrotation Zrotation
									JOINT HeadTop_End
									{
										OFFSET 0.000000 17.760803 13.332701
										CHANNELS 3 Xrotation Yrotation Zrotation
										End Site
										{
											OFFSET 0 0 0
										}
									}
								}
							}
						}
						JOINT LeftShoulder_virtual
						{
							OFFSET 0.000000 0.000000 0.000000
							CHANNELS 3 Xrotation Yrotation Zrotation
							JOINT LeftShoulder
							{
								OFFSET 6.292450 5.785301 -0.669000
								CHANNELS 3 Xrotation Yrotation Zrotation
								JOINT LeftShoulder_split
								{
									OFFSET 6.292450 5.785301 -0.669000
									CHANNELS 3 Xrotation Yrotation Zrotation
									JOINT LeftArm
									{
										OFFSET 13.907140 -6.093903 1.965100
										CHANNELS 3 Xrotation Yrotation Zrotation
										JOINT LeftForeArm
										{
											OFFSET 34.140198 0.000000 0.000000
											CHANNELS 3 Xrotation Yrotation Zrotation
											JOINT LeftHand
											{
												OFFSET 40.960209 0.000000 0.000000
												CHANNELS 3 Xrotation Yrotation Zrotation
												End Site
												{
													OFFSET 0 0 0
												}
											}
										}
									}
								}
							}
						}
						JOINT RightShoulder_virtual
						{
							OFFSET 0.000000 0.000000 0.000000
							CHANNELS 3 Xrotation Yrotation Zrotation
							JOINT RightShoulder
							{
								OFFSET -6.292450 5.785301 -0.669000
								CHANNELS 3 Xrotation Yrotation Zrotation
								JOINT RightShoulder_split
								{
									OFFSET -6.292450 5.785301 -0.669000
									CHANNELS 3 Xrotation Yrotation Zrotation
									JOINT RightArm
									{
										OFFSET -13.907140 -6.093903 1.965100
										CHANNELS 3 Xrotation Yrotation Zrotation
										JOINT RightForeArm
										{
											OFFSET -34.140198 0.000000 0.000000
											CHANNELS 3 Xrotation Yrotation Zrotation
											JOINT RightHand
											{
												OFFSET -40.960209 0.000000 0.000000
												CHANNELS 3 Xrotation Yrotation Zrotation
												End Site
												{
													OFFSET 0 0 0
												}
											}
										}
									}
								}
							}
						}
					}
				}
			}
		}
	}
}
MOTION
Frames: 10
Frame Time: 0.03333333
0.074714 140.687927 4.157310 0.000000 0.000000 0.000000 7.793727 -40.491134 3.214146 -83.821236 -16.236246 23.663889 65.065031 -0.171486 4.333513 20.390445 1.790769 -0.654517 -2.377997 1.486719 -1.713869 0.000000 0.000000 0.000000 7.643544 -44.694408 2.699144 -116.729900 -35.310459 -5.892468 104.718241 19.807135 -12.525474 43.086647 6.084320 34.510186 5.896660 3.407614 -1.881194 0.000000 0.000000 0.000000 7.735548 -41.942634 2.321223 31.535168 -5.918623 -8.542281 12.958739 1.066909 -3.765869 0.519899 1.280244 1.152761 0.000000 0.000000 0.000000 12.859864 1.024975 -2.533828 -7.508938 18.230721 -13.580814 -26.804770 11.182718 4.966683 0.000000 0.000000 0.000000 14.079349 1.270379 -2.977117 13.095042 -17.847636 5.234538 1.320433 -4.221647 -3.191297 -59.050790 -10.081273 -6.326000 48.057112 -16.502671 29.648133 0.000000 0.000000 0.000000 14.828459 1.174835 -2.996179 18.673633 26.174075 -7.180923 0.284947 4.263732 2.356550 -35.813079 1.479254 8.474363 -43.121262 48.591400 33.175578 0.000000 0.000000 0.000000 
0.095064 140.686920 4.145374 0.000000 0.000000 0.000000 7.758386 -40.755206 3.334620 -83.678758 -16.134461 23.795869 64.954532 -0.205085 4.166739 20.238417 1.994164 -0.822857 -2.360964 1.480902 -1.729396 0.000000 0.000000 0.000000 7.666847 -44.951483 2.835555 -116.325607 -35.311060 -5.842957 104.408731 19.980192 -12.488011 42.858211 5.914976 34.212462 5.843725 3.422370 -2.023183 0.000000 0.000000 0.000000 7.653574 -42.072640 2.408748 31.512116 -5.930773 -8.581492 12.927450 1.081541 -3.752010 0.471665 1.275998 1.167049 0.000000 0.000000 0.000000 12.897708 1.027981 -2.542553 -7.512050 18.244579 -13.590084 -26.623164 11.273831 4.818614 0.000000 0.000000 0.000000 14.044609 1.285752 -2.956704 12.821425 -17.919997 4.544048 1.480665 -4.314439 -3.454311 -58.238270 -9.485863 -6.204193 47.913261 -16.406089 29.381852 0.000000 0.000000 0.000000 14.806254 1.156556 -3.007155 18.186386 26.571512 -6.174271 0.276549 4.352491 2.337332 -34.725454 1.346905 8.412081 -43.236276 48.340927 33.096761 0.000000 0.000000 0.000000 
0.095347 140.685318 4.152863 0.000000 0.000000 0.000000 7.802239 -40.924923 3.480868 -83.500183 -16.069818 23.864903 64.772569 -0.286804 3.991809 19.979055 2.259838 -0.976486 -2.357970 1.464444 -1.723819 0.000000 0.000000 0.000000 7.742991 -45.109906 2.985690 -115.925099 -35.251081 -5.773797 104.153199 20.136963 -12.460492 42.578863 5.760797 33.950582 5.767773 3.433307 -2.149988 0.000000 0.000000 0.000000 7.619926 -42.197708 2.524064 31.431581 -5.934245 -8.602168 12.879868 1.093240 -3.741844 0.442346 1.257666 1.185841 0.000000 0.000000 0.000000 12.911415 1.035254 -2.560575 -7.448298 18.254987 -13.615699 -26.399458 11.378021 4.700762 0.000000 0.000000 0.000000 14.003320 1.300880 -2.940957 12.594494 -17.913718 3.952385 1.545422 -4.424754 -3.736181 -57.318032 -8.655922 -5.930313 47.761942 -16.444620 29.184937 0.000000 0.000000 0.000000 14.771409 1.143945 -3.021004 17.741760 26.905355 -5.303000 0.265687 4.406680 2.391782 -33.784373 0.990050 8.234818 -43.319840 47.992263 32.964419 0.000000 0.000000 0.000000 
0.075424 140.696060 4.142456 0.000000 0.000000 0.000000 7.908439 -40.975357 3.648826 -83.284096 -16.054167 23.857414 64.536217 -0.399175 3.815562 19.646824 2.582731 -1.103731 -2.371300 1.440189 -1.698747 0.000000 0.000000 0.000000 7.857544 -45.177805 3.156006 -115.547908 -35.145141 -5.736653 103.940098 20.280099 -12.432480 42.255939 5.649589 33.736312 5.673705 3.442388 -2.259793 0.000000 0.000000 0.000000 7.619926 -42.307291 2.670365 31.309618 -5.938646 -8.608408 12.829178 1.100319 -3.737337 0.446960 1.253353 1.245130 0.000000 0.000000 0.000000 12.905732 1.046376 -2.586654 -7.353173 18.252945 -13.638109 -26.146458 11.478669 4.630696 0.000000 0.000000 0.000000 13.958350 1.315171 -2.932686 12.401905 -17.838982 3.409377 1.493778 -4.494838 -4.027168 -56.304582 -7.564962 -5.572181 47.679560 -16.665332 29.118138 0.000000 0.000000 0.000000 14.725227 1.137272 -3.034331 17.343582 27.175690 -4.536863 0.276630 4.423464 2.510446 -33.053761 0.603524 8.012400 -43.283291 47.512490 32.697225 0.000000 0.000000 0.000000 
0.031850 140.726532 4.127678 0.000000 0.000000 0.000000 8.033785 -40.937507 3.835154 -83.025724 -16.077630 23.792773 64.262812 -0.524936 3.636507 19.268273 2.955271 -1.202007 -2.400191 1.414005 -1.665841 0.000000 0.000000 0.000000 8.004432 -45.183347 3.354896 -115.206017 -35.013783 -5.777244 103.763469 20.408960 -12.383667 41.907766 5.591851 33.566794 5.555842 3.451685 -2.353872 0.000000 0.000000 0.000000 7.638847 -42.395148 2.832435 31.163711 -5.947026 -8.606412 12.775215 1.107913 -3.742761 0.478475 1.273867 1.264532 0.000000 0.000000 0.000000 12.875906 1.062679 -2.620431 -7.254703 18.242732 -13.653645 -25.879421 11.563694 4.622862 0.000000 0.000000 0.000000 13.903898 1.327965 -2.932440 12.217342 -17.712656 2.842098 1.334077 -4.476230 -4.237881 -55.262811 -6.180452 -5.149099 47.757393 -17.116056 29.234893 0.000000 0.000000 0.000000 14.663272 1.137178 -3.046188 16.988205 27.380695 -3.832296 0.282406 4.390072 2.676931 -32.498662 0.319549 7.781282 -43.125418 46.933600 32.311702 0.000000 0.000000 0.000000 
-0.017874 140.775116 4.119877 0.000000 0.000000 0.000000 8.168167 -40.859103 4.043152 -82.738664 -16.118852 23.686584 63.976265 -0.659783 3.462509 18.880847 3.342697 -1.285357 -2.439410 1.390798 -1.632656 0.000000 0.000000 0.000000 8.148485 -45.173741 3.573428 -114.911758 -34.870356 -5.914869 103.626018 20.532503 -12.314576 41.555643 5.593720 33.436249 5.413170 3.462588 -2.436350 0.000000 0.000000 0.000000 7.640689 -42.450251 2.994081 31.016381 -5.956498 -8.593805 12.719640 1.116278 -3.751315 0.504213 1.291382 1.283677 0.000000 0.000000 0.000000 12.821578 1.082661 -2.653232 -7.179139 18.220219 -13.657951 -25.607192 11.598333 4.670050 0.000000 0.000000 0.000000 13.834586 1.342300 -2.935008 12.021722 -17.517198 2.196674 1.082863 -4.398697 -4.321885 -54.297057 -4.554142 -4.691652 48.004622 -17.727324 29.519309 0.000000 0.000000 0.000000 14.583764 1.143545 -3.050695 16.665846 27.518962 -3.147230 0.270008 4.284135 2.856029 -32.090438 0.140477 7.577007 -42.849499 46.265895 31.826701 0.000000 0.000000 0.000000 
-0.078598 140.831924 4.128883 0.000000 0.000000 0.000000 8.264339 -40.775789 4.259170 -82.438717 -16.136201 23.581792 63.695462 -0.811606 3.299620 18.513829 3.688735 -1.383880 -2.459490 1.370881 -1.605112 0.000000 0.000000 0.000000 8.267628 -45.161341 3.803564 -114.678658 -34.722329 -6.144027 103.518579 20.648664 -12.220647 41.221868 5.643189 33.333632 5.247120 3.476378 -2.505772 0.000000 0.000000 0.000000 7.607797 -42.462641 3.127973 30.879418 -5.963127 -8.571750 12.656316 1.123985 -3.751559 0.520874 1.339803 1.265610 0.000000 0.000000 0.000000 12.741162 1.101650 -2.678168 -7.140509 18.178813 -13.653779 -25.333086 11.575573 4.751968 0.000000 0.000000 0.000000 13.752127 1.355172 -2.933026 11.808347 -17.229410 1.467765 0.746674 -4.275403 -4.337750 -53.468145 -2.713292 -4.215327 48.317646 -18.330906 29.858210 0.000000 0.000000 0.000000 14.484564 1.152343 -3.035383 16.358967 27.554223 -2.458754 0.192579 4.187245 2.975933 -31.717493 -0.038232 7.426162 -42.564790 45.614281 31.376974 0.000000 0.000000 0.000000 
-0.138904 140.900665 4.169701 0.000000 0.000000 0.000000 8.316190 -40.722049 4.472538 -82.130450 -16.102157 23.516579 63.425745 -0.986529 3.156576 18.180673 3.951605 -1.523974 -2.444301 1.354737 -1.584007 0.000000 0.000000 0.000000 8.336790 -45.166043 4.020035 -114.490848 -34.582904 -6.412922 103.450182 20.757408 -12.113405 40.924957 5.715016 33.239017 5.066921 3.491429 -2.554871 0.000000 0.000000 0.000000 7.547701 -42.434671 3.222183 30.761645 -5.960285 -8.542366 12.576850 1.134151 -3.734461 0.516242 1.410924 1.195852 0.000000 0.000000 0.000000 12.625594 1.120932 -2.686390 -7.133516 18.121971 -13.656068 -25.073623 11.489178 4.844359 0.000000 0.000000 0.000000 13.658999 1.369204 -2.921303 11.580412 -16.822286 0.684100 0.393429 -4.184833 -4.252000 -52.812317 -0.766009 -3.746337 48.594535 -18.783737 30.143677 0.000000 0.000000 0.000000 14.371768 1.169347 -2.996925 16.071128 27.470319 -1.780037 0.024754 4.123164 3.042508 -31.339551 -0.401997 7.340175 -42.396470 45.100788 31.117563 0.000000 0.000000 0.000000 
-0.191648 140.967285 4.226574 0.000000 0.000000 0.000000 8.331810 -40.687133 4.663908 -81.828685 -16.002218 23.500837 63.164722 -1.162101 3.039144 17.871033 4.116492 -1.680913 -2.406558 1.339244 -1.557789 0.000000 0.000000 0.000000 8.345994 -45.170169 4.194538 -114.319355 -34.459032 -6.655201 103.419255 20.852270 -12.001920 40.668258 5.771746 33.126639 4.915374 3.506383 -2.579059 0.000000 0.000000 0.000000 7.479020 -42.351739 3.289075 30.666221 -5.950092 -8.509066 12.480227 1.146801 -3.698749 0.502047 1.443042 1.189610 0.000000 0.000000 0.000000 12.496874 1.143436 -2.671573 -7.141361 18.036013 -13.661717 -24.835220 11.354932 4.907205 0.000000 0.000000 0.000000 13.551398 1.388379 -2.898208 11.350844 -16.266119 -0.070230 0.043723 -4.167026 -4.120888 -52.336618 1.195780 -3.289544 48.704651 -18.962623 30.270336 0.000000 0.000000 0.000000 14.243126 1.195592 -2.933550 15.797683 27.248879 -1.141710 -0.174279 4.156247 3.009331 -30.991317 -1.133252 7.254187 -42.458741 44.801000 31.170781 0.000000 0.000000 0.000000 
-0.231789 141.033325 4.265385 0.000000 0.000000 0.000000 8.321342 -40.672772 4.818508 -81.525794 -15.855798 23.535399 62.915789 -1.299670 2.951737 17.537812 4.202981 -1.806634 -2.367150 1.320654 -1.518876 0.000000 0.000000 0.000000 8.303446 -45.147120 4.306934 -114.128657 -34.368177 -6.802687 103.392549 20.922628 -11.886730 40.447424 5.783034 32.993683 4.793974 3.518431 -2.578224 0.000000 0.000000 0.000000 7.453038 -42.242849 3.357722 30.592639 -5.928856 -8.483614 12.362247 1.165266 -3.655989 0.488592 1.445123 1.189671 0.000000 0.000000 0.000000 12.366526 1.171398 -2.642795 -7.136872 17.917734 -13.666625 -24.634476 11.212047 4.907836 0.000000 0.000000 0.000000 13.436389 1.415005 -2.870152 11.141720 -15.560699 -0.709254 -0.228988 -4.227758 -3.945818 -52.035028 3.110986 -2.836483 48.658022 -18.920778 30.264596 0.000000 0.000000 0.000000 14.103381 1.231023 -2.855043 15.547969 26.870497 -0.612101 -0.405601 4.214774 2.973022 -30.695475 -2.311265 7.093518 -42.832294 44.788709 31.613240 0.000000 0.000000 0.000000 
